<?xml version="1.0" encoding="UTF-8" standalone="no"?><!DOCTYPE svg PUBLIC "-//W3C//DTD SVG 1.1//EN" "http://www.w3.org/Graphics/SVG/1.1/DTD/svg11.dtd"><svg width="100%" height="100%" viewBox="0 0 65 65" version="1.1" xmlns="http://www.w3.org/2000/svg" xmlns:xlink="http://www.w3.org/1999/xlink" xml:space="preserve" xmlns:serif="http://www.serif.com/" style="fill-rule:evenodd;clip-rule:evenodd;stroke-linejoin:round;stroke-miterlimit:1.41421;"><path d="M27.394,0.723c-2.441,2.44 -4.88,4.879 -7.319,7.318l-2.869,2.869l-0.739,0.741l-0.004,-0.004c-0.487,0.483 -0.975,0.967 -1.463,1.45c-1.685,1.667 -3.427,3.393 -5.087,5.13l-0.532,0.554c-1.491,1.553 -3.032,3.159 -4.252,4.895c-4.169,5.93 -5.594,13.475 -3.909,20.703c1.693,7.268 6.341,13.444 12.749,16.946c3.963,2.166 8.389,3.311 12.798,3.311c6.731,0 13.141,-2.611 18.046,-7.352c4.751,-4.59 9.484,-9.362 14.065,-13.978c1.878,-1.894 3.821,-3.852 5.741,-5.772c0.418,-0.42 0.417,-0.605 -0.014,-1.037c-2.171,-2.183 -4.352,-4.36 -6.531,-6.537l-2.006,-2.006c-0.57,-0.569 -0.764,-0.587 -0.785,-0.587c-0.02,0 -0.215,0.018 -0.786,0.588c-1.519,1.519 -3.038,3.04 -4.558,4.561c-4.574,4.577 -9.304,9.309 -13.972,13.949c-1.003,0.997 -1.889,1.719 -2.79,2.273c-1.95,1.197 -4.182,1.829 -6.456,1.829c-3.791,0 -7.289,-1.703 -9.595,-4.671c-3.844,-4.95 -3.399,-11.784 1.057,-16.251c4.452,-4.46 8.908,-8.913 13.364,-13.368l5.738,-5.735c0.632,-0.634 0.633,-0.736 0.01,-1.36c-2.81,-2.814 -5.622,-5.626 -8.436,-8.435c-0.528,-0.53 -0.727,-0.544 -0.747,-0.544c-0.021,0 -0.21,0.014 -0.718,0.52Zm2.242,14.332l-6.717,-6.719l-0.726,-0.724l5.923,-5.924l0.726,0.725l2.216,2.217l4.501,4.501l0.726,0.724l-0.726,0.726l-1.46,1.46l-3.012,3.014l-0.725,0.724l-0.726,-0.724Zm-17.468,43.755c-5.312,-3.88 -8.889,-9.464 -10.074,-15.725c-1.185,-6.267 0.111,-12.77 3.652,-18.31c0.84,-1.316 1.917,-2.64 3.293,-4.049c2.651,-2.715 5.38,-5.433 8.02,-8.063l4.233,-4.226l0.725,0.725l1.359,1.36l5.433,5.433l0.725,0.725l-0.725,0.724l-0.58,0.58c-1.124,1.123 -2.246,2.247 -3.368,3.371c-2.518,2.52 -5.038,5.041 -7.564,7.555c-4.839,4.82 -5.253,12.484 -0.963,17.828c2.539,3.166 6.337,4.982 10.419,4.982c2.848,0 5.58,-0.891 7.902,-2.577c0.947,-0.689 1.79,-1.532 2.684,-2.426c0.169,-0.17 0.338,-0.339 0.509,-0.507c2.256,-2.235 4.538,-4.523 6.745,-6.734l3.875,-3.879l0.726,0.725l3.098,3.098l3.693,3.694l0.725,0.726l-0.725,0.724l-0.122,0.124l-0.259,0.258c-1.213,1.21 -2.42,2.424 -3.63,3.637c-2.63,2.641 -5.35,5.372 -8.065,8.024c-4.453,4.349 -10.734,6.844 -17.231,6.844c-5.261,0 -10.415,-1.646 -14.51,-4.641Zm44.636,-16.587l-6.716,-6.717l-0.724,-0.726l5.921,-5.922l0.725,0.726l3.716,3.714l3.001,3.002l0.725,0.725l-0.725,0.725l-1.887,1.886l-2.585,2.587l-0.726,0.724l-0.725,-0.724Z" style="fill:url(#_Linear1);fill-rule:nonzero;"/><defs><linearGradient id="_Linear1" x1="0" y1="0" x2="1" y2="0" gradientUnits="userSpaceOnUse" gradientTransform="matrix(62.4342,-43.0102,43.0102,62.4342,-4.17846,56.9345)"><stop offset="0" style="stop-color:#ff1453;stop-opacity:1"/><stop offset="1" style="stop-color:#9327f5;stop-opacity:1"/></linearGradient></defs></svg>