<?xml version="1.0" encoding="UTF-8" standalone="no"?><!DOCTYPE svg PUBLIC "-//W3C//DTD SVG 1.1//EN" "http://www.w3.org/Graphics/SVG/1.1/DTD/svg11.dtd"><svg width="100%" height="100%" viewBox="0 0 65 43" version="1.1" xmlns="http://www.w3.org/2000/svg" xmlns:xlink="http://www.w3.org/1999/xlink" xml:space="preserve" xmlns:serif="http://www.serif.com/" style="fill-rule:evenodd;clip-rule:evenodd;stroke-linejoin:round;stroke-miterlimit:1.41421;"><path d="M1.634,0.154c-0.211,0 -0.894,0.051 -0.897,0.708c-0.001,0.194 0.057,0.352 0.174,0.468c0.154,0.156 0.404,0.241 0.704,0.241l0.65,0.002c0.893,0.001 1.786,0.002 2.68,0.002c1.195,0 2.392,-0.001 3.588,-0.009l0.005,0l0.022,0c1.171,0 1.979,0.653 2.219,1.791c1.622,7.708 3.249,15.415 4.878,23.121c1.004,4.756 2.01,9.511 3.013,14.269c0.302,1.432 0.914,1.941 2.333,1.941l17.028,0l18.155,0l0.118,0l0.098,0c0.06,0 0.12,0 0.178,-0.004c0.273,-0.021 0.433,-0.185 0.504,-0.281c0.069,-0.096 0.181,-0.298 0.12,-0.562c-0.045,-0.2 -0.13,-0.573 -0.902,-0.573c-8.329,-0.001 -16.658,-0.001 -24.988,-0.001l-9.047,0l-0.035,0.002c-0.076,0.005 -0.152,0.008 -0.225,0.008c-0.223,0 -0.428,-0.027 -0.626,-0.083c-0.588,-0.168 -1.282,-0.638 -1.467,-1.458l-0.622,-2.949l-0.356,-1.717l1.732,-0.275l0.68,-0.105c5.973,-0.64 11.943,-1.278 17.914,-1.915l6.065,-0.648c4.25,-0.453 8.5,-0.908 12.75,-1.362c0.99,-0.107 1.677,-0.724 1.883,-1.693c0.864,-4.071 1.724,-8.143 2.585,-12.213l1.107,-5.233c0.134,-0.617 0.271,-1.256 0.395,-1.88c0.114,-0.575 0.022,-1.079 -0.258,-1.421c-0.276,-0.337 -0.746,-0.523 -1.323,-0.523c-3.613,-0.002 -7.228,-0.002 -10.843,-0.002l-7.065,0l-6.805,0.002l-0.214,0l-3.605,-0.002l-3.604,0c-5.109,0 -10.219,0.002 -15.328,0.009c-1.189,0 -2.025,-0.683 -2.242,-1.829c-0.287,-1.522 -0.619,-3.047 -0.874,-4.206c-0.231,-1.043 -0.952,-1.62 -2.034,-1.62c-1.235,-0.003 -2.473,-0.004 -3.709,-0.004c-1.502,0 -3.006,0.001 -4.509,0.004Zm16.659,31.926l-4.821,-22.835l2.065,0l45.093,0l2.057,0l-0.417,2.014l-0.19,0.914c-0.135,0.653 -0.269,1.299 -0.405,1.944l-0.716,3.391c-0.701,3.315 -1.426,6.742 -2.128,10.114c-0.227,1.092 -0.965,1.757 -2.078,1.873c-4.061,0.425 -8.191,0.867 -12.186,1.294l-4.632,0.495c-3.047,0.324 -6.096,0.648 -9.142,0.972l-6.54,0.696c-0.928,0.098 -1.855,0.198 -2.803,0.302l-1.339,0.144l-1.506,0.163l-0.312,-1.481Z" style="fill:url(#_Linear1);fill-rule:nonzero;"/><defs><linearGradient id="_Linear1" x1="0" y1="0" x2="1" y2="0" gradientUnits="userSpaceOnUse" gradientTransform="matrix(71.7452,-49.6697,49.6697,71.7452,-7.0076,46.3439)"><stop offset="0" style="stop-color:#ff1453;stop-opacity:1"/><stop offset="1" style="stop-color:#9327f5;stop-opacity:1"/></linearGradient></defs></svg>