<?xml version="1.0" encoding="UTF-8" standalone="no"?><!DOCTYPE svg PUBLIC "-//W3C//DTD SVG 1.1//EN" "http://www.w3.org/Graphics/SVG/1.1/DTD/svg11.dtd"><svg width="100%" height="100%" viewBox="0 0 48 73" version="1.1" xmlns="http://www.w3.org/2000/svg" xmlns:xlink="http://www.w3.org/1999/xlink" xml:space="preserve" xmlns:serif="http://www.serif.com/" style="fill-rule:evenodd;clip-rule:evenodd;stroke-linejoin:round;stroke-miterlimit:1.41421;"><path d="M19.877,0.968c-7.497,1.382 -13.881,6.406 -17.077,13.436c-3.178,6.99 -2.712,14.856 1.274,21.583c1.726,2.912 4.099,5.4 7.051,7.396c2.406,1.626 3.836,3.852 4.25,6.617c0.086,0.581 0.102,1.272 -0.434,2.001c-0.873,1.19 -0.856,2.776 0.044,4.039c0.088,0.125 0.182,0.249 0.27,0.368l0.123,0.166l0.184,0.246l-0.195,0.238c-1.414,1.74 -1.413,3.434 0.002,5.175l0.205,0.253l-0.208,0.25c-1.152,1.369 -1.371,2.719 -0.671,4.128c0.672,1.354 1.794,2.012 3.426,2.012l1.104,-0.016l1.468,0.008l0.368,0l0.026,0.367c0.105,1.495 0.866,2.461 2.389,3.032l1.269,0c0.815,-0.334 1.512,-0.678 1.881,-1.391c0.181,-0.35 0.316,-0.74 0.458,-1.151l0.311,-0.86l0.273,0l1.712,0.007c0.351,0 0.703,-0.001 1.054,-0.011c1.622,-0.035 3.014,-1.174 3.385,-2.769c0.277,-1.19 -0.039,-2.296 -0.966,-3.378l-0.221,-0.26l0.225,-0.259c0.712,-0.81 1.058,-1.656 1.058,-2.586c0,-0.885 -0.332,-1.692 -1.046,-2.539l-0.198,-0.235l0.179,-0.249c1.278,-1.78 1.415,-3.237 0.435,-4.588c-0.531,-0.728 -0.518,-1.418 -0.437,-1.997c0.378,-2.703 1.794,-4.895 4.328,-6.701c8.089,-5.767 11.446,-13.575 9.985,-23.211c-0.835,-5.486 -3.644,-10.476 -7.911,-14.051c-4.207,-3.526 -9.553,-5.466 -15.053,-5.466c-1.438,0 -2.893,0.133 -4.32,0.396Zm-2.966,49.07l-0.191,-0.914c-0.613,-2.883 -2.165,-5.187 -4.614,-6.848c-4.455,-3.021 -7.478,-7.076 -8.986,-12.051c-1.815,-5.995 -0.904,-12.527 2.497,-17.922c3.414,-5.41 8.937,-9.058 15.154,-10.007c1.113,-0.171 2.245,-0.256 3.363,-0.256c11.075,0 20.4,8.197 21.69,19.065c1.031,8.675 -2.081,15.674 -9.247,20.804c-3.087,2.208 -4.734,4.702 -5.183,7.85l-0.138,0.371l-0.099,0.245l-0.265,0l-2.185,0l-0.395,0l0,-22.288l0.395,0l0.497,0.002l0.503,0c0.195,0 0.389,0 0.584,-0.003c2.073,-0.028 3.629,-1.57 3.622,-3.588c-0.009,-1.956 -1.61,-3.548 -3.572,-3.548c-2.018,0.007 -3.545,1.581 -3.564,3.661c-0.003,0.346 -0.002,0.694 -0.001,1.052l0,0.516l0,0.395l-0.394,0l-4.534,0l-0.395,0l-0.001,-2.008c-0.024,-2.028 -1.596,-3.616 -3.573,-3.616c-1.957,0.01 -3.545,1.592 -3.562,3.524c-0.017,2.028 1.528,3.58 3.596,3.612c0.19,0.003 0.379,0.003 0.571,0.003l0.493,0l0.546,-0.002l0.395,0l0,0.396l0,21.475l0,0.395l-0.395,0l-2.225,0l-0.322,0l-0.065,-0.315Zm11.348,-23.835c0,-0.21 -0.004,-0.412 -0.007,-0.608c-0.008,-0.432 -0.015,-0.841 0.016,-1.256c0.082,-1.072 0.99,-1.91 2.068,-1.91l0.043,0c1.104,0.023 1.985,0.868 2.05,1.966c0.068,1.139 -0.767,2.103 -1.899,2.195c-0.208,0.016 -0.431,0.023 -0.702,0.023l-1.174,-0.014l-0.395,0l0,-0.396Zm-10.611,0.38c-1.085,-0.096 -1.896,-1.045 -1.85,-2.16c0.047,-1.083 0.936,-1.958 2.025,-1.992l0.064,-0.001c1.076,0 1.986,0.828 2.072,1.885c0.034,0.415 0.025,0.827 0.018,1.264c-0.004,0.198 -0.008,0.404 -0.008,0.621l0,0.394l-0.396,0l-1.195,0.017c-0.282,0 -0.514,-0.009 -0.73,-0.028Zm3.849,23.367l0,-21.805l0.395,0l4.47,0l0.394,0l0,0.395l0,21.41l0,0.395l-0.394,0l-4.47,0l-0.395,0l0,-0.395Zm4.399,1.926l1.785,-0.001c0.809,0 1.618,0 2.428,0.002c1.368,0.006 2.326,0.865 2.328,2.093c0,1.23 -0.958,2.091 -2.328,2.093c-2.01,0.003 -4.019,0.005 -6.028,0.005c-1.998,0 -3.997,-0.002 -5.995,-0.006c-0.7,-0.001 -1.314,-0.235 -1.731,-0.663c-0.379,-0.387 -0.574,-0.895 -0.561,-1.471c0.023,-1.202 0.966,-2.044 2.289,-2.049c0.839,-0.004 1.676,-0.004 2.512,-0.004l1.787,0l1.784,0.001l1.73,0Zm-7.734,9.852c-0.744,-0.001 -1.389,-0.242 -1.814,-0.676c-0.372,-0.379 -0.562,-0.882 -0.554,-1.453c0.021,-1.228 0.968,-2.054 2.356,-2.057c1.921,-0.001 3.841,-0.003 5.762,-0.003c2.064,0 4.126,0.002 6.19,0.003c1.393,0.003 2.331,0.84 2.335,2.086c0.003,1.232 -0.952,2.094 -2.321,2.099c-0.821,0.002 -1.64,0.003 -2.459,0.003l-1.777,-0.001l-1.776,0l-1.709,0l-1.82,0.001c-0.804,0 -1.609,-0.001 -2.413,-0.002Zm6.107,1.477l1.704,-0.001l1.706,-0.002c0.818,0 1.636,0.002 2.453,0.004c0.704,0.003 1.322,0.237 1.74,0.661c0.376,0.38 0.571,0.884 0.563,1.457c-0.013,1.215 -0.949,2.063 -2.277,2.066c-2.021,0.003 -4.042,0.004 -6.064,0.004c-1.986,0 -3.973,-0.001 -5.958,-0.003c-1.392,-0.003 -2.332,-0.837 -2.342,-2.075c-0.005,-0.569 0.189,-1.066 0.559,-1.441c0.434,-0.436 1.064,-0.667 1.825,-0.67c0.816,-0.001 1.632,-0.001 2.449,-0.001l1.781,0l1.782,0.001l0.079,0Zm-1.632,6.165l-0.095,-0.473l0.481,0l2.161,0l0.45,0l-0.058,0.447c-0.159,1.238 -0.97,1.436 -1.44,1.442l-0.002,0l-0.023,0c-0.544,0 -1.241,-0.246 -1.474,-1.416Z" style="fill:url(#_Linear1);fill-rule:nonzero;"/><defs><linearGradient id="_Linear1" x1="0" y1="0" x2="1" y2="0" gradientUnits="userSpaceOnUse" gradientTransform="matrix(49.5374,-68.3274,68.3274,49.5374,-1.26877,67.0864)"><stop offset="0" style="stop-color:#ff1453;stop-opacity:1"/><stop offset="1" style="stop-color:#9327f5;stop-opacity:1"/></linearGradient></defs></svg>